<svg width="1920" height="103" viewBox="0 0 1920 103" fill="none" xmlns="http://www.w3.org/2000/svg">
<line y1="51.5" x2="1920" y2="51.5" stroke="#8F755A" stroke-width="2"/>
<path d="M356.932 42.9034C354.899 39.5339 357.375 35.2451 361.309 35.3211L402.023 36.1076C405.828 36.1811 408.159 40.3104 406.256 43.6066L386.581 77.6857C384.678 80.982 379.936 81.0277 377.97 77.7688L356.932 42.9034Z" fill="#8F755A"/>
<path d="M701.092 58.3886C699.184 55.0611 701.579 50.9136 705.414 50.9019L735.728 50.809C739.584 50.7972 742.001 54.9697 740.073 58.309L724.836 84.7007C722.908 88.0399 718.086 88.0325 716.168 84.6874L701.092 58.3886Z" fill="#8F755A"/>
<path d="M1097.09 31.3886C1095.18 28.0611 1097.58 23.9136 1101.41 23.9019L1131.73 23.809C1135.58 23.7972 1138 27.9697 1136.07 31.309L1120.84 57.7007C1118.91 61.0399 1114.09 61.0325 1112.17 57.6874L1097.09 31.3886Z" fill="#8F755A"/>
<path d="M1644.09 58.3886C1642.19 55.0611 1644.58 50.9136 1648.42 50.9019L1678.73 50.809C1682.58 50.7972 1685 54.9697 1683.07 58.309L1667.84 84.7007C1665.91 88.0399 1661.09 88.0325 1659.17 84.6874L1644.09 58.3886Z" fill="#8F755A"/>
</svg>
