<svg width="540" height="384" viewBox="0 0 540 384" fill="none" xmlns="http://www.w3.org/2000/svg">
<path d="M0 0H460C504.183 0 540 35.8172 540 80V304C540 348.183 504.183 384 460 384H0V0Z" fill="#D9D9D9"/>
<mask id="path-2-inside-1_314_65591" fill="white">
<path d="M80 0H540V384H80V0Z"/>
</mask>
<path d="M96 384V0H64V384H96Z" fill="#8C8C8C" mask="url(#path-2-inside-1_314_65591)"/>
<rect width="96" height="80" transform="translate(186 56)" fill="#F0F0F0"/>
<rect width="96" height="80" transform="translate(338 56)" fill="#F0F0F0"/>
<rect x="270" y="152" width="80" height="80" rx="40" fill="white"/>
<path d="M298.464 199.5L302.802 186.198H305.574L309.894 199.5H307.392L305.376 192.426C305.16 191.718 304.956 190.992 304.764 190.248C304.572 189.504 304.374 188.772 304.17 188.052H304.098C303.918 188.784 303.726 189.522 303.522 190.266C303.318 190.998 303.114 191.718 302.91 192.426L300.876 199.5H298.464ZM301.02 195.9V194.046H307.302V195.9H301.02ZM311.925 199.5V197.574H314.823V189.114H312.411V187.638C313.059 187.506 313.617 187.356 314.085 187.188C314.565 187.02 315.003 186.81 315.399 186.558H317.163V197.574H319.719V199.5H311.925Z" fill="black"/>
<rect width="96" height="80" transform="translate(186 248)" fill="#F0F0F0"/>
<rect width="96" height="80" transform="translate(338 248)" fill="#F0F0F0"/>
</svg>
