<svg width="1080" height="384" viewBox="0 0 1080 384" fill="none" xmlns="http://www.w3.org/2000/svg">
<rect width="1080" height="384" fill="#D9D9D9"/>
<mask id="path-1-inside-1_314_65669" fill="white">
<path d="M52 0H1028V132H52V0Z"/>
</mask>
<path d="M1020 0V132H1036V0H1020ZM60 132V0H44V132H60Z" fill="#8C8C8C" mask="url(#path-1-inside-1_314_65669)"/>
<mask id="path-3-inside-2_314_65669" fill="white">
<path d="M60 0H380V132H60V0Z"/>
</mask>
<path d="M380 132V140H388V132H380ZM60 132H52V140H60V132ZM372 0V132H388V0H372ZM380 124H60V140H380V124ZM68 132V0H52V132H68Z" fill="#8C8C8C" mask="url(#path-3-inside-2_314_65669)"/>
<rect width="64" height="80" transform="translate(108 20)" fill="#F0F0F0"/>
<rect x="188" y="28" width="64" height="64" rx="32" fill="white"/>
<path d="M209.692 67.5V54.198H213.238C214.606 54.198 215.77 54.444 216.73 54.936C217.702 55.428 218.44 56.16 218.944 57.132C219.46 58.104 219.718 59.328 219.718 60.804C219.718 62.268 219.46 63.498 218.944 64.494C218.44 65.49 217.714 66.24 216.766 66.744C215.818 67.248 214.684 67.5 213.364 67.5H209.692ZM212.068 65.574H213.076C213.964 65.574 214.72 65.406 215.344 65.07C215.98 64.722 216.46 64.194 216.784 63.486C217.12 62.778 217.288 61.884 217.288 60.804C217.288 59.7 217.12 58.806 216.784 58.122C216.46 57.438 215.98 56.934 215.344 56.61C214.72 56.286 213.964 56.124 213.076 56.124H212.068V65.574ZM226.163 67.752C225.467 67.752 224.843 67.668 224.291 67.5C223.751 67.332 223.271 67.11 222.851 66.834C222.443 66.558 222.071 66.264 221.735 65.952L222.851 64.44C223.103 64.68 223.379 64.908 223.679 65.124C223.979 65.328 224.309 65.496 224.669 65.628C225.041 65.748 225.443 65.808 225.875 65.808C226.355 65.808 226.781 65.712 227.153 65.52C227.525 65.328 227.819 65.052 228.035 64.692C228.251 64.32 228.359 63.876 228.359 63.36C228.359 62.592 228.137 61.998 227.693 61.578C227.261 61.158 226.691 60.948 225.983 60.948C225.575 60.948 225.227 61.008 224.939 61.128C224.651 61.236 224.309 61.416 223.913 61.668L222.797 60.948L223.193 54.558H230.105V56.556H225.227L224.957 59.67C225.221 59.538 225.485 59.436 225.749 59.364C226.025 59.292 226.331 59.256 226.667 59.256C227.411 59.256 228.089 59.4 228.701 59.688C229.325 59.976 229.817 60.42 230.177 61.02C230.549 61.608 230.735 62.364 230.735 63.288C230.735 64.224 230.519 65.028 230.087 65.7C229.655 66.372 229.091 66.882 228.395 67.23C227.711 67.578 226.967 67.752 226.163 67.752Z" fill="black"/>
<rect width="64" height="80" transform="translate(268 20)" fill="#F0F0F0"/>
<mask id="path-7-inside-3_314_65669" fill="white">
<path d="M380 0H700V132H380V0Z"/>
</mask>
<path d="M700 132V140H708V132H700ZM380 132H372V140H380V132ZM692 0V132H708V0H692ZM700 124H380V140H700V124ZM388 132V0H372V132H388Z" fill="#8C8C8C" mask="url(#path-7-inside-3_314_65669)"/>
<rect width="64" height="80" transform="translate(428 20)" fill="#F0F0F0"/>
<rect x="508" y="28" width="64" height="64" rx="32" fill="white"/>
<path d="M529.692 67.5V54.198H533.238C534.606 54.198 535.77 54.444 536.73 54.936C537.702 55.428 538.44 56.16 538.944 57.132C539.46 58.104 539.718 59.328 539.718 60.804C539.718 62.268 539.46 63.498 538.944 64.494C538.44 65.49 537.714 66.24 536.766 66.744C535.818 67.248 534.684 67.5 533.364 67.5H529.692ZM532.068 65.574H533.076C533.964 65.574 534.72 65.406 535.344 65.07C535.98 64.722 536.46 64.194 536.784 63.486C537.12 62.778 537.288 61.884 537.288 60.804C537.288 59.7 537.12 58.806 536.784 58.122C536.46 57.438 535.98 56.934 535.344 56.61C534.72 56.286 533.964 56.124 533.076 56.124H532.068V65.574ZM546.127 67.752C545.431 67.752 544.813 67.668 544.273 67.5C543.733 67.332 543.253 67.11 542.833 66.834C542.413 66.558 542.053 66.246 541.753 65.898L542.887 64.404C543.283 64.788 543.727 65.118 544.219 65.394C544.711 65.67 545.281 65.808 545.929 65.808C546.409 65.808 546.829 65.736 547.189 65.592C547.549 65.436 547.825 65.214 548.017 64.926C548.221 64.626 548.323 64.278 548.323 63.882C548.323 63.426 548.209 63.036 547.981 62.712C547.765 62.388 547.381 62.142 546.829 61.974C546.277 61.794 545.509 61.704 544.525 61.704V59.976C545.377 59.976 546.043 59.886 546.523 59.706C547.015 59.526 547.363 59.28 547.567 58.968C547.783 58.656 547.891 58.302 547.891 57.906C547.891 57.366 547.723 56.946 547.387 56.646C547.051 56.334 546.583 56.178 545.983 56.178C545.491 56.178 545.035 56.292 544.615 56.52C544.195 56.748 543.787 57.048 543.391 57.42L542.185 55.944C542.737 55.464 543.331 55.074 543.967 54.774C544.603 54.474 545.305 54.324 546.073 54.324C546.901 54.324 547.627 54.456 548.251 54.72C548.887 54.984 549.379 55.374 549.727 55.89C550.087 56.394 550.267 57.006 550.267 57.726C550.267 58.458 550.063 59.07 549.655 59.562C549.259 60.054 548.713 60.438 548.017 60.714V60.786C548.521 60.918 548.977 61.128 549.385 61.416C549.793 61.704 550.111 62.064 550.339 62.496C550.579 62.928 550.699 63.432 550.699 64.008C550.699 64.8 550.489 65.478 550.069 66.042C549.661 66.594 549.109 67.02 548.413 67.32C547.729 67.608 546.967 67.752 546.127 67.752Z" fill="black"/>
<rect width="64" height="80" transform="translate(588 20)" fill="#F0F0F0"/>
<mask id="path-11-inside-4_314_65669" fill="white">
<path d="M700 0H1020V132H700V0Z"/>
</mask>
<path d="M1020 132V140H1028V132H1020ZM700 132H692V140H700V132ZM1012 0V132H1028V0H1012ZM1020 124H700V140H1020V124ZM708 132V0H692V132H708Z" fill="#8C8C8C" mask="url(#path-11-inside-4_314_65669)"/>
<rect width="64" height="80" transform="translate(748 20)" fill="#F0F0F0"/>
<rect x="828" y="28" width="64" height="64" rx="32" fill="white"/>
<path d="M849.692 67.5V54.198H853.238C854.606 54.198 855.77 54.444 856.73 54.936C857.702 55.428 858.44 56.16 858.944 57.132C859.46 58.104 859.718 59.328 859.718 60.804C859.718 62.268 859.46 63.498 858.944 64.494C858.44 65.49 857.714 66.24 856.766 66.744C855.818 67.248 854.684 67.5 853.364 67.5H849.692ZM852.068 65.574H853.076C853.964 65.574 854.72 65.406 855.344 65.07C855.98 64.722 856.46 64.194 856.784 63.486C857.12 62.778 857.288 61.884 857.288 60.804C857.288 59.7 857.12 58.806 856.784 58.122C856.46 57.438 855.98 56.934 855.344 56.61C854.72 56.286 853.964 56.124 853.076 56.124H852.068V65.574ZM862.779 67.5V65.574H865.677V57.114H863.265V55.638C863.913 55.506 864.471 55.356 864.939 55.188C865.419 55.02 865.857 54.81 866.253 54.558H868.017V65.574H870.573V67.5H862.779Z" fill="black"/>
<rect width="64" height="80" transform="translate(908 20)" fill="#F0F0F0"/>
<mask id="path-15-inside-5_314_65669" fill="white">
<path d="M52 252H1028V384H52V252Z"/>
</mask>
<path d="M1020 252V384H1036V252H1020ZM60 384V252H44V384H60Z" fill="#8C8C8C" mask="url(#path-15-inside-5_314_65669)"/>
<mask id="path-17-inside-6_314_65669" fill="white">
<path d="M60 252H380V384H60V252Z"/>
</mask>
<path d="M60 252V244H52V252H60ZM380 252H388V244H380V252ZM60 260H380V244H60V260ZM372 252V384H388V252H372ZM68 384V252H52V384H68Z" fill="#8C8C8C" mask="url(#path-17-inside-6_314_65669)"/>
<rect width="64" height="80" transform="translate(108 284)" fill="#F0F0F0"/>
<rect x="188" y="292" width="64" height="64" rx="32" fill="white"/>
<path d="M209.692 331.5V318.198H213.238C214.606 318.198 215.77 318.444 216.73 318.936C217.702 319.428 218.44 320.16 218.944 321.132C219.46 322.104 219.718 323.328 219.718 324.804C219.718 326.268 219.46 327.498 218.944 328.494C218.44 329.49 217.714 330.24 216.766 330.744C215.818 331.248 214.684 331.5 213.364 331.5H209.692ZM212.068 329.574H213.076C213.964 329.574 214.72 329.406 215.344 329.07C215.98 328.722 216.46 328.194 216.784 327.486C217.12 326.778 217.288 325.884 217.288 324.804C217.288 323.7 217.12 322.806 216.784 322.122C216.46 321.438 215.98 320.934 215.344 320.61C214.72 320.286 213.964 320.124 213.076 320.124H212.068V329.574ZM226.865 331.752C226.229 331.752 225.629 331.626 225.065 331.374C224.501 331.122 224.003 330.738 223.571 330.222C223.139 329.694 222.797 329.034 222.545 328.242C222.293 327.45 222.167 326.508 222.167 325.416C222.167 324.156 222.305 323.082 222.581 322.194C222.857 321.294 223.235 320.562 223.715 319.998C224.195 319.422 224.735 319.002 225.335 318.738C225.947 318.462 226.583 318.324 227.243 318.324C228.035 318.324 228.713 318.468 229.277 318.756C229.853 319.044 230.333 319.386 230.717 319.782L229.457 321.204C229.217 320.928 228.911 320.7 228.539 320.52C228.167 320.34 227.783 320.25 227.387 320.25C226.835 320.25 226.325 320.412 225.857 320.736C225.401 321.06 225.035 321.6 224.759 322.356C224.483 323.1 224.345 324.12 224.345 325.416C224.345 326.484 224.453 327.354 224.669 328.026C224.885 328.686 225.179 329.172 225.551 329.484C225.923 329.796 226.343 329.952 226.811 329.952C227.183 329.952 227.513 329.856 227.801 329.664C228.101 329.472 228.335 329.196 228.503 328.836C228.683 328.464 228.773 328.02 228.773 327.504C228.773 326.988 228.689 326.562 228.521 326.226C228.353 325.878 228.113 325.62 227.801 325.452C227.501 325.284 227.141 325.2 226.721 325.2C226.349 325.2 225.947 325.32 225.515 325.56C225.095 325.8 224.699 326.214 224.327 326.802L224.237 325.146C224.489 324.81 224.777 324.522 225.101 324.282C225.437 324.03 225.785 323.838 226.145 323.706C226.505 323.574 226.841 323.508 227.153 323.508C227.897 323.508 228.551 323.652 229.115 323.94C229.691 324.228 230.135 324.672 230.447 325.272C230.771 325.86 230.933 326.604 230.933 327.504C230.933 328.356 230.747 329.1 230.375 329.736C230.003 330.372 229.511 330.87 228.899 331.23C228.287 331.578 227.609 331.752 226.865 331.752Z" fill="black"/>
<rect width="64" height="80" transform="translate(268 284)" fill="#F0F0F0"/>
<mask id="path-21-inside-7_314_65669" fill="white">
<path d="M380 252H700V384H380V252Z"/>
</mask>
<path d="M380 252V244H372V252H380ZM700 252H708V244H700V252ZM380 260H700V244H380V260ZM692 252V384H708V252H692ZM388 384V252H372V384H388Z" fill="#8C8C8C" mask="url(#path-21-inside-7_314_65669)"/>
<rect width="64" height="80" transform="translate(428 284)" fill="#F0F0F0"/>
<rect x="508" y="292" width="64" height="64" rx="32" fill="white"/>
<path d="M529.692 331.5V318.198H533.238C534.606 318.198 535.77 318.444 536.73 318.936C537.702 319.428 538.44 320.16 538.944 321.132C539.46 322.104 539.718 323.328 539.718 324.804C539.718 326.268 539.46 327.498 538.944 328.494C538.44 329.49 537.714 330.24 536.766 330.744C535.818 331.248 534.684 331.5 533.364 331.5H529.692ZM532.068 329.574H533.076C533.964 329.574 534.72 329.406 535.344 329.07C535.98 328.722 536.46 328.194 536.784 327.486C537.12 326.778 537.288 325.884 537.288 324.804C537.288 323.7 537.12 322.806 536.784 322.122C536.46 321.438 535.98 320.934 535.344 320.61C534.72 320.286 533.964 320.124 533.076 320.124H532.068V329.574ZM547.351 331.5V323.436C547.351 323.064 547.363 322.62 547.387 322.104C547.411 321.576 547.429 321.126 547.441 320.754H547.369C547.201 321.078 547.027 321.408 546.847 321.744C546.679 322.08 546.499 322.422 546.307 322.77L543.967 326.352H551.185V328.188H541.645V326.568L546.757 318.558H549.547V331.5H547.351Z" fill="black"/>
<rect width="64" height="80" transform="translate(588 284)" fill="#F0F0F0"/>
<mask id="path-25-inside-8_314_65669" fill="white">
<path d="M700 252H1020V384H700V252Z"/>
</mask>
<path d="M700 252V244H692V252H700ZM1020 252H1028V244H1020V252ZM700 260H1020V244H700V260ZM1012 252V384H1028V252H1012ZM708 384V252H692V384H708Z" fill="#8C8C8C" mask="url(#path-25-inside-8_314_65669)"/>
<rect width="64" height="80" transform="translate(748 284)" fill="#F0F0F0"/>
<rect x="828" y="292" width="64" height="64" rx="32" fill="white"/>
<path d="M849.692 331.5V318.198H853.238C854.606 318.198 855.77 318.444 856.73 318.936C857.702 319.428 858.44 320.16 858.944 321.132C859.46 322.104 859.718 323.328 859.718 324.804C859.718 326.268 859.46 327.498 858.944 328.494C858.44 329.49 857.714 330.24 856.766 330.744C855.818 331.248 854.684 331.5 853.364 331.5H849.692ZM852.068 329.574H853.076C853.964 329.574 854.72 329.406 855.344 329.07C855.98 328.722 856.46 328.194 856.784 327.486C857.12 326.778 857.288 325.884 857.288 324.804C857.288 323.7 857.12 322.806 856.784 322.122C856.46 321.438 855.98 320.934 855.344 320.61C854.72 320.286 853.964 320.124 853.076 320.124H852.068V329.574ZM862.041 331.5V330.132C863.241 328.98 864.279 327.948 865.155 327.036C866.031 326.112 866.703 325.278 867.171 324.534C867.651 323.778 867.891 323.07 867.891 322.41C867.891 321.942 867.807 321.546 867.639 321.222C867.483 320.898 867.249 320.646 866.937 320.466C866.625 320.274 866.235 320.178 865.767 320.178C865.263 320.178 864.801 320.322 864.381 320.61C863.973 320.898 863.595 321.234 863.247 321.618L861.933 320.322C862.521 319.674 863.133 319.182 863.769 318.846C864.417 318.498 865.185 318.324 866.073 318.324C866.901 318.324 867.621 318.486 868.233 318.81C868.845 319.134 869.319 319.596 869.655 320.196C870.003 320.784 870.177 321.48 870.177 322.284C870.177 323.052 869.961 323.832 869.529 324.624C869.097 325.416 868.527 326.226 867.819 327.054C867.111 327.882 866.325 328.746 865.461 329.646C865.809 329.61 866.181 329.58 866.577 329.556C866.973 329.52 867.327 329.502 867.639 329.502H870.789V331.5H862.041Z" fill="black"/>
<rect width="64" height="80" transform="translate(908 284)" fill="#F0F0F0"/>
</svg>
