<svg width="1080" height="384" viewBox="0 0 1080 384" fill="none" xmlns="http://www.w3.org/2000/svg">
<rect width="1080" height="384" fill="#D9D9D9"/>
<rect width="64" height="80" transform="translate(106 180)" fill="#F0F0F0"/>
<rect width="64" height="80" transform="translate(106 284)" fill="#F0F0F0"/>
<rect x="186" y="240" width="64" height="64" rx="32" fill="white"/>
<path d="M208.692 279.5V266.198H216.702V268.196H211.068V271.58H215.838V273.578H211.068V277.502H216.9V279.5H208.692ZM224.575 279.5V271.436C224.575 271.064 224.587 270.62 224.611 270.104C224.635 269.576 224.653 269.126 224.665 268.754H224.593C224.425 269.078 224.251 269.408 224.071 269.744C223.903 270.08 223.723 270.422 223.531 270.77L221.191 274.352H228.409V276.188H218.869V274.568L223.981 266.558H226.771V279.5H224.575Z" fill="black"/>
<rect width="64" height="80" transform="translate(266 180)" fill="#F0F0F0"/>
<rect width="64" height="80" transform="translate(266 284)" fill="#F0F0F0"/>
<rect width="2" height="224" transform="translate(386 160)" fill="white"/>
<rect width="64" height="80" transform="translate(444 180)" fill="#F0F0F0"/>
<rect width="64" height="80" transform="translate(444 284)" fill="#F0F0F0"/>
<rect x="516" y="240" width="64" height="64" rx="32" fill="white"/>
<path d="M538.692 279.5V266.198H546.702V268.196H541.068V271.58H545.838V273.578H541.068V277.502H546.9V279.5H538.692ZM553.351 279.752C552.655 279.752 552.037 279.668 551.497 279.5C550.957 279.332 550.477 279.11 550.057 278.834C549.637 278.558 549.277 278.246 548.977 277.898L550.111 276.404C550.507 276.788 550.951 277.118 551.443 277.394C551.935 277.67 552.505 277.808 553.153 277.808C553.633 277.808 554.053 277.736 554.413 277.592C554.773 277.436 555.049 277.214 555.241 276.926C555.445 276.626 555.547 276.278 555.547 275.882C555.547 275.426 555.433 275.036 555.205 274.712C554.989 274.388 554.605 274.142 554.053 273.974C553.501 273.794 552.733 273.704 551.749 273.704V271.976C552.601 271.976 553.267 271.886 553.747 271.706C554.239 271.526 554.587 271.28 554.791 270.968C555.007 270.656 555.115 270.302 555.115 269.906C555.115 269.366 554.947 268.946 554.611 268.646C554.275 268.334 553.807 268.178 553.207 268.178C552.715 268.178 552.259 268.292 551.839 268.52C551.419 268.748 551.011 269.048 550.615 269.42L549.409 267.944C549.961 267.464 550.555 267.074 551.191 266.774C551.827 266.474 552.529 266.324 553.297 266.324C554.125 266.324 554.851 266.456 555.475 266.72C556.111 266.984 556.603 267.374 556.951 267.89C557.311 268.394 557.491 269.006 557.491 269.726C557.491 270.458 557.287 271.07 556.879 271.562C556.483 272.054 555.937 272.438 555.241 272.714V272.786C555.745 272.918 556.201 273.128 556.609 273.416C557.017 273.704 557.335 274.064 557.563 274.496C557.803 274.928 557.923 275.432 557.923 276.008C557.923 276.8 557.713 277.478 557.293 278.042C556.885 278.594 556.333 279.02 555.637 279.32C554.953 279.608 554.191 279.752 553.351 279.752Z" fill="black"/>
<rect width="64" height="80" transform="translate(588 180)" fill="#F0F0F0"/>
<rect width="64" height="80" transform="translate(588 284)" fill="#F0F0F0"/>
<rect width="2" height="224" transform="translate(708 160)" fill="white"/>
<rect width="64" height="80" transform="translate(766 180)" fill="#F0F0F0"/>
<rect width="64" height="80" transform="translate(766 284)" fill="#F0F0F0"/>
<rect x="838" y="240" width="64" height="64" rx="32" fill="white"/>
<path d="M860.692 279.5V266.198H868.702V268.196H863.068V271.58H867.838V273.578H863.068V277.502H868.9V279.5H860.692ZM871.265 279.5V278.132C872.465 276.98 873.503 275.948 874.379 275.036C875.255 274.112 875.927 273.278 876.395 272.534C876.875 271.778 877.115 271.07 877.115 270.41C877.115 269.942 877.031 269.546 876.863 269.222C876.707 268.898 876.473 268.646 876.161 268.466C875.849 268.274 875.459 268.178 874.991 268.178C874.487 268.178 874.025 268.322 873.605 268.61C873.197 268.898 872.819 269.234 872.471 269.618L871.157 268.322C871.745 267.674 872.357 267.182 872.993 266.846C873.641 266.498 874.409 266.324 875.297 266.324C876.125 266.324 876.845 266.486 877.457 266.81C878.069 267.134 878.543 267.596 878.879 268.196C879.227 268.784 879.401 269.48 879.401 270.284C879.401 271.052 879.185 271.832 878.753 272.624C878.321 273.416 877.751 274.226 877.043 275.054C876.335 275.882 875.549 276.746 874.685 277.646C875.033 277.61 875.405 277.58 875.801 277.556C876.197 277.52 876.551 277.502 876.863 277.502H880.013V279.5H871.265Z" fill="black"/>
<rect width="64" height="80" transform="translate(910 180)" fill="#F0F0F0"/>
<rect width="64" height="80" transform="translate(910 284)" fill="#F0F0F0"/>
</svg>
