<svg width="1080" height="384" viewBox="0 0 1080 384" fill="none" xmlns="http://www.w3.org/2000/svg">
<rect width="1080" height="384" fill="#D9D9D9"/>
<rect width="64" height="80" transform="translate(37 20)" fill="#F0F0F0"/>
<rect x="109" y="28" width="64" height="64" rx="32" fill="white"/>
<path d="M131.692 67.5V54.198H139.72V56.196H134.068V59.958H138.892V61.956H134.068V67.5H131.692ZM144.313 67.5C144.373 66.36 144.481 65.31 144.637 64.35C144.793 63.378 145.009 62.466 145.285 61.614C145.561 60.75 145.909 59.91 146.329 59.094C146.761 58.266 147.289 57.42 147.913 56.556H141.811V54.558H150.487V56.016C149.731 56.952 149.119 57.846 148.651 58.698C148.183 59.538 147.817 60.396 147.553 61.272C147.289 62.148 147.097 63.09 146.977 64.098C146.857 65.106 146.773 66.24 146.725 67.5H144.313Z" fill="black"/>
<rect width="64" height="80" transform="translate(181 20)" fill="#F0F0F0"/>
<rect width="2" height="120" transform="translate(273)" fill="white"/>
<rect width="64" height="80" transform="translate(303 20)" fill="#F0F0F0"/>
<rect x="375" y="28" width="64" height="64" rx="32" fill="white"/>
<path d="M397.692 67.5V54.198H405.72V56.196H400.068V59.958H404.892V61.956H400.068V67.5H397.692ZM411.807 67.752C411.111 67.752 410.487 67.668 409.935 67.5C409.395 67.332 408.915 67.11 408.495 66.834C408.087 66.558 407.715 66.264 407.379 65.952L408.495 64.44C408.747 64.68 409.023 64.908 409.323 65.124C409.623 65.328 409.953 65.496 410.313 65.628C410.685 65.748 411.087 65.808 411.519 65.808C411.999 65.808 412.425 65.712 412.797 65.52C413.169 65.328 413.463 65.052 413.679 64.692C413.895 64.32 414.003 63.876 414.003 63.36C414.003 62.592 413.781 61.998 413.337 61.578C412.905 61.158 412.335 60.948 411.627 60.948C411.219 60.948 410.871 61.008 410.583 61.128C410.295 61.236 409.953 61.416 409.557 61.668L408.441 60.948L408.837 54.558H415.749V56.556H410.871L410.601 59.67C410.865 59.538 411.129 59.436 411.393 59.364C411.669 59.292 411.975 59.256 412.311 59.256C413.055 59.256 413.733 59.4 414.345 59.688C414.969 59.976 415.461 60.42 415.821 61.02C416.193 61.608 416.379 62.364 416.379 63.288C416.379 64.224 416.163 65.028 415.731 65.7C415.299 66.372 414.735 66.882 414.039 67.23C413.355 67.578 412.611 67.752 411.807 67.752Z" fill="black"/>
<rect width="64" height="80" transform="translate(447 20)" fill="#F0F0F0"/>
<rect width="2" height="120" transform="translate(539)" fill="white"/>
<rect width="64" height="80" transform="translate(569 20)" fill="#F0F0F0"/>
<rect x="641" y="28" width="64" height="64" rx="32" fill="white"/>
<path d="M663.692 67.5V54.198H671.72V56.196H666.068V59.958H670.892V61.956H666.068V67.5H663.692ZM677.771 67.752C677.075 67.752 676.457 67.668 675.917 67.5C675.377 67.332 674.897 67.11 674.477 66.834C674.057 66.558 673.697 66.246 673.397 65.898L674.531 64.404C674.927 64.788 675.371 65.118 675.863 65.394C676.355 65.67 676.925 65.808 677.573 65.808C678.053 65.808 678.473 65.736 678.833 65.592C679.193 65.436 679.469 65.214 679.661 64.926C679.865 64.626 679.967 64.278 679.967 63.882C679.967 63.426 679.853 63.036 679.625 62.712C679.409 62.388 679.025 62.142 678.473 61.974C677.921 61.794 677.153 61.704 676.169 61.704V59.976C677.021 59.976 677.687 59.886 678.167 59.706C678.659 59.526 679.007 59.28 679.211 58.968C679.427 58.656 679.535 58.302 679.535 57.906C679.535 57.366 679.367 56.946 679.031 56.646C678.695 56.334 678.227 56.178 677.627 56.178C677.135 56.178 676.679 56.292 676.259 56.52C675.839 56.748 675.431 57.048 675.035 57.42L673.829 55.944C674.381 55.464 674.975 55.074 675.611 54.774C676.247 54.474 676.949 54.324 677.717 54.324C678.545 54.324 679.271 54.456 679.895 54.72C680.531 54.984 681.023 55.374 681.371 55.89C681.731 56.394 681.911 57.006 681.911 57.726C681.911 58.458 681.707 59.07 681.299 59.562C680.903 60.054 680.357 60.438 679.661 60.714V60.786C680.165 60.918 680.621 61.128 681.029 61.416C681.437 61.704 681.755 62.064 681.983 62.496C682.223 62.928 682.343 63.432 682.343 64.008C682.343 64.8 682.133 65.478 681.713 66.042C681.305 66.594 680.753 67.02 680.057 67.32C679.373 67.608 678.611 67.752 677.771 67.752Z" fill="black"/>
<rect width="64" height="80" transform="translate(713 20)" fill="#F0F0F0"/>
<rect width="2" height="120" transform="translate(805)" fill="white"/>
<rect width="64" height="80" transform="translate(835 20)" fill="#F0F0F0"/>
<rect x="907" y="28" width="64" height="64" rx="32" fill="white"/>
<path d="M929.692 67.5V54.198H937.72V56.196H932.068V59.958H936.892V61.956H932.068V67.5H929.692ZM940.423 67.5V65.574H943.321V57.114H940.909V55.638C941.557 55.506 942.115 55.356 942.583 55.188C943.063 55.02 943.501 54.81 943.897 54.558H945.661V65.574H948.217V67.5H940.423Z" fill="black"/>
<rect width="64" height="80" transform="translate(979 20)" fill="#F0F0F0"/>
<rect width="64" height="80" transform="translate(37 284)" fill="#F0F0F0"/>
<rect x="109" y="292" width="64" height="64" rx="32" fill="white"/>
<path d="M131.692 331.5V318.198H139.72V320.196H134.068V323.958H138.892V325.956H134.068V331.5H131.692ZM146.131 331.752C145.291 331.752 144.541 331.602 143.881 331.302C143.221 330.99 142.699 330.57 142.315 330.042C141.943 329.502 141.757 328.89 141.757 328.206C141.757 327.654 141.865 327.174 142.081 326.766C142.297 326.346 142.579 325.98 142.927 325.668C143.287 325.344 143.671 325.074 144.079 324.858V324.786C143.575 324.426 143.149 324 142.801 323.508C142.465 323.016 142.297 322.434 142.297 321.762C142.297 321.066 142.465 320.46 142.801 319.944C143.149 319.428 143.617 319.032 144.205 318.756C144.793 318.468 145.459 318.324 146.203 318.324C146.983 318.324 147.655 318.468 148.219 318.756C148.795 319.044 149.239 319.452 149.551 319.98C149.863 320.508 150.019 321.12 150.019 321.816C150.019 322.248 149.929 322.656 149.749 323.04C149.581 323.412 149.365 323.742 149.101 324.03C148.837 324.318 148.567 324.564 148.291 324.768V324.858C148.687 325.086 149.053 325.35 149.389 325.65C149.737 325.95 150.013 326.31 150.217 326.73C150.421 327.15 150.523 327.648 150.523 328.224C150.523 328.884 150.337 329.484 149.965 330.024C149.605 330.552 149.095 330.972 148.435 331.284C147.787 331.596 147.019 331.752 146.131 331.752ZM146.995 324.192C147.343 323.844 147.607 323.49 147.787 323.13C147.967 322.758 148.057 322.368 148.057 321.96C148.057 321.576 147.979 321.24 147.823 320.952C147.679 320.652 147.463 320.418 147.175 320.25C146.899 320.082 146.563 319.998 146.167 319.998C145.663 319.998 145.243 320.154 144.907 320.466C144.571 320.766 144.403 321.198 144.403 321.762C144.403 322.194 144.517 322.554 144.745 322.842C144.985 323.13 145.297 323.382 145.681 323.598C146.077 323.802 146.515 324 146.995 324.192ZM146.185 330.06C146.605 330.06 146.971 329.982 147.283 329.826C147.607 329.67 147.859 329.454 148.039 329.178C148.219 328.89 148.309 328.548 148.309 328.152C148.309 327.792 148.225 327.486 148.057 327.234C147.901 326.982 147.679 326.766 147.391 326.586C147.115 326.394 146.791 326.214 146.419 326.046C146.047 325.878 145.639 325.704 145.195 325.524C144.787 325.812 144.451 326.166 144.187 326.586C143.935 326.994 143.809 327.45 143.809 327.954C143.809 328.362 143.911 328.728 144.115 329.052C144.331 329.364 144.619 329.61 144.979 329.79C145.339 329.97 145.741 330.06 146.185 330.06Z" fill="black"/>
<rect width="64" height="80" transform="translate(181 284)" fill="#F0F0F0"/>
<rect width="2" height="120" transform="translate(273 264)" fill="white"/>
<rect width="64" height="80" transform="translate(303 284)" fill="#F0F0F0"/>
<rect x="375" y="292" width="64" height="64" rx="32" fill="white"/>
<path d="M397.692 331.5V318.198H405.72V320.196H400.068V323.958H404.892V325.956H400.068V331.5H397.692ZM412.509 331.752C411.873 331.752 411.273 331.626 410.709 331.374C410.145 331.122 409.647 330.738 409.215 330.222C408.783 329.694 408.441 329.034 408.189 328.242C407.937 327.45 407.811 326.508 407.811 325.416C407.811 324.156 407.949 323.082 408.225 322.194C408.501 321.294 408.879 320.562 409.359 319.998C409.839 319.422 410.379 319.002 410.979 318.738C411.591 318.462 412.227 318.324 412.887 318.324C413.679 318.324 414.357 318.468 414.921 318.756C415.497 319.044 415.977 319.386 416.361 319.782L415.101 321.204C414.861 320.928 414.555 320.7 414.183 320.52C413.811 320.34 413.427 320.25 413.031 320.25C412.479 320.25 411.969 320.412 411.501 320.736C411.045 321.06 410.679 321.6 410.403 322.356C410.127 323.1 409.989 324.12 409.989 325.416C409.989 326.484 410.097 327.354 410.313 328.026C410.529 328.686 410.823 329.172 411.195 329.484C411.567 329.796 411.987 329.952 412.455 329.952C412.827 329.952 413.157 329.856 413.445 329.664C413.745 329.472 413.979 329.196 414.147 328.836C414.327 328.464 414.417 328.02 414.417 327.504C414.417 326.988 414.333 326.562 414.165 326.226C413.997 325.878 413.757 325.62 413.445 325.452C413.145 325.284 412.785 325.2 412.365 325.2C411.993 325.2 411.591 325.32 411.159 325.56C410.739 325.8 410.343 326.214 409.971 326.802L409.881 325.146C410.133 324.81 410.421 324.522 410.745 324.282C411.081 324.03 411.429 323.838 411.789 323.706C412.149 323.574 412.485 323.508 412.797 323.508C413.541 323.508 414.195 323.652 414.759 323.94C415.335 324.228 415.779 324.672 416.091 325.272C416.415 325.86 416.577 326.604 416.577 327.504C416.577 328.356 416.391 329.1 416.019 329.736C415.647 330.372 415.155 330.87 414.543 331.23C413.931 331.578 413.253 331.752 412.509 331.752Z" fill="black"/>
<rect width="64" height="80" transform="translate(447 284)" fill="#F0F0F0"/>
<rect width="2" height="120" transform="translate(539 264)" fill="white"/>
<rect width="64" height="80" transform="translate(569 284)" fill="#F0F0F0"/>
<rect x="641" y="292" width="64" height="64" rx="32" fill="white"/>
<path d="M663.692 331.5V318.198H671.72V320.196H666.068V323.958H670.892V325.956H666.068V331.5H663.692ZM678.995 331.5V323.436C678.995 323.064 679.007 322.62 679.031 322.104C679.055 321.576 679.073 321.126 679.085 320.754H679.013C678.845 321.078 678.671 321.408 678.491 321.744C678.323 322.08 678.143 322.422 677.951 322.77L675.611 326.352H682.829V328.188H673.289V326.568L678.401 318.558H681.191V331.5H678.995Z" fill="black"/>
<rect width="64" height="80" transform="translate(713 284)" fill="#F0F0F0"/>
<rect width="2" height="120" transform="translate(805 264)" fill="white"/>
<rect width="64" height="80" transform="translate(835 284)" fill="#F0F0F0"/>
<rect x="907" y="292" width="64" height="64" rx="32" fill="white"/>
<path d="M929.692 331.5V318.198H937.72V320.196H932.068V323.958H936.892V325.956H932.068V331.5H929.692ZM939.685 331.5V330.132C940.885 328.98 941.923 327.948 942.799 327.036C943.675 326.112 944.347 325.278 944.815 324.534C945.295 323.778 945.535 323.07 945.535 322.41C945.535 321.942 945.451 321.546 945.283 321.222C945.127 320.898 944.893 320.646 944.581 320.466C944.269 320.274 943.879 320.178 943.411 320.178C942.907 320.178 942.445 320.322 942.025 320.61C941.617 320.898 941.239 321.234 940.891 321.618L939.577 320.322C940.165 319.674 940.777 319.182 941.413 318.846C942.061 318.498 942.829 318.324 943.717 318.324C944.545 318.324 945.265 318.486 945.877 318.81C946.489 319.134 946.963 319.596 947.299 320.196C947.647 320.784 947.821 321.48 947.821 322.284C947.821 323.052 947.605 323.832 947.173 324.624C946.741 325.416 946.171 326.226 945.463 327.054C944.755 327.882 943.969 328.746 943.105 329.646C943.453 329.61 943.825 329.58 944.221 329.556C944.617 329.52 944.971 329.502 945.283 329.502H948.433V331.5H939.685Z" fill="black"/>
<rect width="64" height="80" transform="translate(979 284)" fill="#F0F0F0"/>
</svg>
